# Platformer scene-authored stage mesh
# Z pre-mirrored for Assimp left-handed conversion; outward face winding.
s off
o part_0
v -6 -1 -22
v 6 -1 -22
v 6 0 -22
v -6 0 -22
v -6 -1 2
v 6 -1 2
v 6 0 2
v -6 0 2
vn 0 0 -1
vn 0 0 1
vn -1 0 0
vn 1 0 0
vn 0 -1 0
vn 0 1 0
f 4//1 3//1 2//1 1//1
f 5//2 6//2 7//2 8//2
f 1//3 5//3 8//3 4//3
f 6//4 2//4 3//4 7//4
f 5//5 1//5 2//5 6//5
f 4//6 8//6 7//6 3//6
o part_1
v -10 -1.5 -24
v -6 -1.5 -24
v -6 -0.5 -24
v -10 -0.5 -24
v -10 -1.5 0
v -6 -1.5 0
v -6 -0.5 0
v -10 -0.5 0
vn 0 0 -1
vn 0 0 1
vn -1 0 0
vn 1 0 0
vn 0 -1 0
vn 0 1 0
f 12//7 11//7 10//7 9//7
f 13//8 14//8 15//8 16//8
f 9//9 13//9 16//9 12//9
f 14//10 10//10 11//10 15//10
f 13//11 9//11 10//11 14//11
f 12//12 16//12 15//12 11//12
o part_2
v 6 -1.5 -24
v 10 -1.5 -24
v 10 -0.5 -24
v 6 -0.5 -24
v 6 -1.5 0
v 10 -1.5 0
v 10 -0.5 0
v 6 -0.5 0
vn 0 0 -1
vn 0 0 1
vn -1 0 0
vn 1 0 0
vn 0 -1 0
vn 0 1 0
f 20//13 19//13 18//13 17//13
f 21//14 22//14 23//14 24//14
f 17//15 21//15 24//15 20//15
f 22//16 18//16 19//16 23//16
f 21//17 17//17 18//17 22//17
f 20//18 24//18 23//18 19//18
