# Platformer scene-authored stage mesh
# Z pre-mirrored for Assimp left-handed conversion; outward face winding.
s off
o part_0
v 0.5 1.55772 -31.9332
v 5.5 1.55772 -31.9332
v 5.5 2.33047 -31.7261
v 0.5 2.33047 -31.7261
v 0.5 -1.03047 -22.2739
v 5.5 -1.03047 -22.2739
v 5.5 -0.257725 -22.0668
v 0.5 -0.257725 -22.0668
vn 0 0.258819 -0.965926
vn 0 -0.258819 0.965926
vn -1 0 0
vn 1 0 0
vn 0 -0.965926 -0.258819
vn 0 0.965926 0.258819
f 4//1 3//1 2//1 1//1
f 5//2 6//2 7//2 8//2
f 1//3 5//3 8//3 4//3
f 6//4 2//4 3//4 7//4
f 5//5 1//5 2//5 6//5
f 4//6 8//6 7//6 3//6
o part_1
v 0 1.1 -39
v 8 1.1 -39
v 8 2.1 -39
v 0 2.1 -39
v 0 1.1 -31
v 8 1.1 -31
v 8 2.1 -31
v 0 2.1 -31
vn 0 0 -1
vn 0 0 1
vn -1 0 0
vn 1 0 0
vn 0 -1 0
vn 0 1 0
f 12//7 11//7 10//7 9//7
f 13//8 14//8 15//8 16//8
f 9//9 13//9 16//9 12//9
f 14//10 10//10 11//10 15//10
f 13//11 9//11 10//11 14//11
f 12//12 16//12 15//12 11//12
o part_2
v -6 1.65 -44
v 6 1.65 -44
v 6 2.35 -44
v -6 2.35 -44
v -6 1.65 -38
v 6 1.65 -38
v 6 2.35 -38
v -6 2.35 -38
vn 0 0 -1
vn 0 0 1
vn -1 0 0
vn 1 0 0
vn 0 -1 0
vn 0 1 0
f 20//13 19//13 18//13 17//13
f 21//14 22//14 23//14 24//14
f 17//15 21//15 24//15 20//15
f 22//16 18//16 19//16 23//16
f 21//17 17//17 18//17 22//17
f 20//18 24//18 23//18 19//18
o part_3
v -10 2 -51
v -2 2 -51
v -2 2.8 -51
v -10 2.8 -51
v -10 2 -43
v -2 2 -43
v -2 2.8 -43
v -10 2.8 -43
vn 0 0 -1
vn 0 0 1
vn -1 0 0
vn 1 0 0
vn 0 -1 0
vn 0 1 0
f 28//19 27//19 26//19 25//19
f 29//20 30//20 31//20 32//20
f 25//21 29//21 32//21 28//21
f 30//22 26//22 27//22 31//22
f 29//23 25//23 26//23 30//23
f 28//24 32//24 31//24 27//24
o part_4
v -12 -3 -69
v 12 -3 -69
v 12 -2 -69
v -12 -2 -69
v -12 -3 -27
v 12 -3 -27
v 12 -2 -27
v -12 -2 -27
vn 0 0 -1
vn 0 0 1
vn -1 0 0
vn 1 0 0
vn 0 -1 0
vn 0 1 0
f 36//25 35//25 34//25 33//25
f 37//26 38//26 39//26 40//26
f 33//27 37//27 40//27 36//27
f 38//28 34//28 35//28 39//28
f 37//29 33//29 34//29 38//29
f 36//30 40//30 39//30 35//30
o part_5
v 2 2.5 -63
v 10 2.5 -63
v 10 3.5 -63
v 2 3.5 -63
v 2 2.5 -55
v 10 2.5 -55
v 10 3.5 -55
v 2 3.5 -55
vn 0 0 -1
vn 0 0 1
vn -1 0 0
vn 1 0 0
vn 0 -1 0
vn 0 1 0
f 44//31 43//31 42//31 41//31
f 45//32 46//32 47//32 48//32
f 41//33 45//33 48//33 44//33
f 46//34 42//34 43//34 47//34
f 45//35 41//35 42//35 46//35
f 44//36 48//36 47//36 43//36
