# Platformer scene-authored stage mesh
# Z pre-mirrored for Assimp left-handed conversion; outward face winding.
s off
o part_0
v -10 5 -112
v 0 5 -112
v 0 6 -112
v -10 6 -112
v -10 5 -102
v 0 5 -102
v 0 6 -102
v -10 6 -102
vn 0 0 -1
vn 0 0 1
vn -1 0 0
vn 1 0 0
vn 0 -1 0
vn 0 1 0
f 4//1 3//1 2//1 1//1
f 5//2 6//2 7//2 8//2
f 1//3 5//3 8//3 4//3
f 6//4 2//4 3//4 7//4
f 5//5 1//5 2//5 6//5
f 4//6 8//6 7//6 3//6
o part_1
v -5 4.6 -116.5
v 7 4.6 -116.5
v 7 5.4 -116.5
v -5 5.4 -116.5
v -5 4.6 -111.5
v 7 4.6 -111.5
v 7 5.4 -111.5
v -5 5.4 -111.5
vn 0 0 -1
vn 0 0 1
vn -1 0 0
vn 1 0 0
vn 0 -1 0
vn 0 1 0
f 12//7 11//7 10//7 9//7
f 13//8 14//8 15//8 16//8
f 9//9 13//9 16//9 12//9
f 14//10 10//10 11//10 15//10
f 13//11 9//11 10//11 14//11
f 12//12 16//12 15//12 11//12
o part_2
v -6 3.5 -125
v 6 3.5 -125
v 6 4.5 -125
v -6 4.5 -125
v -6 3.5 -117
v 6 3.5 -117
v 6 4.5 -117
v -6 4.5 -117
vn 0 0 -1
vn 0 0 1
vn -1 0 0
vn 1 0 0
vn 0 -1 0
vn 0 1 0
f 20//13 19//13 18//13 17//13
f 21//14 22//14 23//14 24//14
f 17//15 21//15 24//15 20//15
f 22//16 18//16 19//16 23//16
f 21//17 17//17 18//17 22//17
f 20//18 24//18 23//18 19//18
o part_3
v -6 2.5 -128
v 6 2.5 -128
v 6 3.5 -128
v -6 3.5 -128
v -6 2.5 -124
v 6 2.5 -124
v 6 3.5 -124
v -6 3.5 -124
vn 0 0 -1
vn 0 0 1
vn -1 0 0
vn 1 0 0
vn 0 -1 0
vn 0 1 0
f 28//19 27//19 26//19 25//19
f 29//20 30//20 31//20 32//20
f 25//21 29//21 32//21 28//21
f 30//22 26//22 27//22 31//22
f 29//23 25//23 26//23 30//23
f 28//24 32//24 31//24 27//24
o part_4
v -6 1.5 -132
v 6 1.5 -132
v 6 2.5 -132
v -6 2.5 -132
v -6 1.5 -128
v 6 1.5 -128
v 6 2.5 -128
v -6 2.5 -128
vn 0 0 -1
vn 0 0 1
vn -1 0 0
vn 1 0 0
vn 0 -1 0
vn 0 1 0
f 36//25 35//25 34//25 33//25
f 37//26 38//26 39//26 40//26
f 33//27 37//27 40//27 36//27
f 38//28 34//28 35//28 39//28
f 37//29 33//29 34//29 38//29
f 36//30 40//30 39//30 35//30
o part_5
v -6 0.5 -136
v 6 0.5 -136
v 6 1.5 -136
v -6 1.5 -136
v -6 0.5 -132
v 6 0.5 -132
v 6 1.5 -132
v -6 1.5 -132
vn 0 0 -1
vn 0 0 1
vn -1 0 0
vn 1 0 0
vn 0 -1 0
vn 0 1 0
f 44//31 43//31 42//31 41//31
f 45//32 46//32 47//32 48//32
f 41//33 45//33 48//33 44//33
f 46//34 42//34 43//34 47//34
f 45//35 41//35 42//35 46//35
f 44//36 48//36 47//36 43//36
o part_6
v -7.6 5.5 -103.6
v -6.4 5.5 -103.6
v -6.4 8.7 -103.6
v -7.6 8.7 -103.6
v -7.6 5.5 -102.4
v -6.4 5.5 -102.4
v -6.4 8.7 -102.4
v -7.6 8.7 -102.4
vn 0 0 -1
vn 0 0 1
vn -1 0 0
vn 1 0 0
vn 0 -1 0
vn 0 1 0
f 52//37 51//37 50//37 49//37
f 53//38 54//38 55//38 56//38
f 49//39 53//39 56//39 52//39
f 54//40 50//40 51//40 55//40
f 53//41 49//41 50//41 54//41
f 52//42 56//42 55//42 51//42
o part_7
v 6.4 5.5 -108.6
v 7.6 5.5 -108.6
v 7.6 9.5 -108.6
v 6.4 9.5 -108.6
v 6.4 5.5 -107.4
v 7.6 5.5 -107.4
v 7.6 9.5 -107.4
v 6.4 9.5 -107.4
vn 0 0 -1
vn 0 0 1
vn -1 0 0
vn 1 0 0
vn 0 -1 0
vn 0 1 0
f 60//43 59//43 58//43 57//43
f 61//44 62//44 63//44 64//44
f 57//45 61//45 64//45 60//45
f 62//46 58//46 59//46 63//46
f 61//47 57//47 58//47 62//47
f 60//48 64//48 63//48 59//48
o part_8
v -7.6 5.5 -116.6
v -6.4 5.5 -116.6
v -6.4 9.1 -116.6
v -7.6 9.1 -116.6
v -7.6 5.5 -115.4
v -6.4 5.5 -115.4
v -6.4 9.1 -115.4
v -7.6 9.1 -115.4
vn 0 0 -1
vn 0 0 1
vn -1 0 0
vn 1 0 0
vn 0 -1 0
vn 0 1 0
f 68//49 67//49 66//49 65//49
f 69//50 70//50 71//50 72//50
f 65//51 69//51 72//51 68//51
f 70//52 66//52 67//52 71//52
f 69//53 65//53 66//53 70//53
f 68//54 72//54 71//54 67//54
o part_9
v 6.4 5.5 -121.6
v 7.6 5.5 -121.6
v 7.6 9.7 -121.6
v 6.4 9.7 -121.6
v 6.4 5.5 -120.4
v 7.6 5.5 -120.4
v 7.6 9.7 -120.4
v 6.4 9.7 -120.4
vn 0 0 -1
vn 0 0 1
vn -1 0 0
vn 1 0 0
vn 0 -1 0
vn 0 1 0
f 76//55 75//55 74//55 73//55
f 77//56 78//56 79//56 80//56
f 73//57 77//57 80//57 76//57
f 78//58 74//58 75//58 79//58
f 77//59 73//59 74//59 78//59
f 76//60 80//60 79//60 75//60
