# Blender v2.76 (sub 0) OBJ File: ''
# 面ごとに独立頂点・UV・法線
mtllib cube.mtl
o Cube

# 頂点（36個）
v 0.5 -0.5 -0.5
v 0.5 -0.5  0.5
v -0.5 -0.5  0.5
v 0.5 -0.5 -0.5
v -0.5 -0.5  0.5
v -0.5 -0.5 -0.5

v 0.5 0.5 -0.5
v -0.5 0.5  0.5
v 0.5 0.5  0.5
v 0.5 0.5 -0.5
v -0.5 0.5 -0.5
v -0.5 0.5  0.5

v 0.5 -0.5 0.5
v 0.5 0.5 0.5
v -0.5 0.5 0.5
v 0.5 -0.5 0.5
v -0.5 0.5 0.5
v -0.5 -0.5 0.5

v -0.5 -0.5 -0.5
v -0.5 0.5 0.5
v -0.5 0.5 -0.5
v -0.5 -0.5 -0.5
v -0.5 -0.5 0.5
v -0.5 0.5 0.5

v 0.5 -0.5 -0.5
v 0.5 0.5 0.5
v 0.5 -0.5 0.5
v 0.5 -0.5 -0.5
v 0.5 0.5 -0.5
v 0.5 0.5 0.5


v 0.5 -0.5 -0.5
v -0.5 -0.5 -0.5
v -0.5 0.5 -0.5
v 0.5 -0.5 -0.5
v -0.5 0.5 -0.5
v 0.5 0.5 -0.5

# 下面
vt 0 0
vt 10 0
vt 10 10
vt 0 0
vt 10 10
vt 0 10

# 上面
vt 0 0
vt 10 10
vt 10 0
vt 0 0
vt 0 10
vt 10 10

# 前面
vt 0 0
vt 10 0
vt 10 10
vt 0 0
vt 10 10
vt 0 10

# 左面
vt 0 0
vt 10 10
vt 10 0
vt 0 0
vt 0 10
vt 10 10

# 右面
vt 0 0
vt 10 10
vt 10 0
vt 0 0
vt 0 10
vt 10 10

# 背面
vt 0 0
vt 10 0
vt 10 10
vt 0 0
vt 10 10
vt 0 10

vn 0 -1 0
vn 0 -1 0
vn 0 -1 0
vn 0 -1 0
vn 0 -1 0
vn 0 -1 0

vn 0 1 0
vn 0 1 0
vn 0 1 0
vn 0 1 0
vn 0 1 0
vn 0 1 0

vn 0 0 1
vn 0 0 1
vn 0 0 1
vn 0 0 1
vn 0 0 1
vn 0 0 1

vn -1 0 0
vn -1 0 0
vn -1 0 0
vn -1 0 0
vn -1 0 0
vn -1 0 0

vn 1 0 0
vn 1 0 0
vn 1 0 0
vn 1 0 0
vn 1 0 0
vn 1 0 0

vn 0 0 -1
vn 0 0 -1
vn 0 0 -1
vn 0 0 -1
vn 0 0 -1
vn 0 0 -1

usemtl Material
s off

# f v/vt/vn
f 1/1/1 2/2/2 3/3/3
f 4/4/4 5/5/5 6/6/6

f 7/7/7 8/8/8 9/9/9
f 10/10/10 11/11/11 12/12/12

f 13/13/13 14/14/14 15/15/15
f 16/16/16 17/17/17 18/18/18

f 19/19/19 20/20/20 21/21/21
f 22/22/22 23/23/23 24/24/24

f 25/25/25 26/26/26 27/27/27
f 28/28/28 29/29/29 30/30/30

f 31/31/31 32/32/32 33/33/33
f 34/34/34 35/35/35 36/36/36
